<?xml version="1.0" encoding="UTF-8"?>
<svg version="1.1" xmlns="http://www.w3.org/2000/svg" width="808" height="1024">
<path d="M0 0 C6.56479404 3.86109889 10.27791603 9.45207051 14.4375 15.6875 C15.66528873 17.39682394 16.89436241 19.10522597 18.125 20.8125 C26.48103873 32.92101908 26.48103873 32.92101908 28.18946838 37.86250305 C30.55916603 44.66570752 33.83004409 48.90666108 38.984375 53.85546875 C39.71440735 54.57938309 40.4444397 55.30329742 41.19659424 56.04914856 C43.51311054 58.33895104 45.84989169 60.6067562 48.1875 62.875 C49.74091304 64.40685587 51.2930087 65.94004887 52.84375 67.47460938 C58.97603197 73.51743604 65.10975565 79.49675209 71.63885498 85.11315918 C74.51567827 87.63122154 77.23325908 90.29920837 79.9375 93 C80.47375 93.52400391 81.01 94.04800781 81.5625 94.58789062 C82.89467501 95.91496802 84.17157049 97.29708742 85.4375 98.6875 C85.4375 99.3475 85.4375 100.0075 85.4375 100.6875 C86.9225 101.1825 86.9225 101.1825 88.4375 101.6875 C90.3391194 104.02658115 92.11857405 106.36818762 93.875 108.8125 C97.39510981 113.62566776 100.94777312 118.36848382 104.75561523 122.95800781 C114.15790545 134.31449952 122.01893871 146.77983919 130.02514648 159.13818359 C132.86038066 163.47093648 135.8634172 167.54472091 139.13183594 171.55908203 C144.54674287 178.26317471 149.00213815 185.01134679 152.6875 192.8125 C153.05786377 193.59351074 153.42822754 194.37452148 153.80981445 195.17919922 C155.84982537 199.71896938 156.99025374 203.7283282 157.4375 208.6875 C158.675 208.4709375 158.675 208.4709375 159.9375 208.25 C165.17829321 208.90509915 167.89490285 211.94021946 171.4375 215.6875 C173.13710212 217.97317181 174.2369938 219.77954739 174.8515625 222.5625 C175.71364835 225.95937559 176.68211012 228.06322316 179.41796875 230.32421875 C189.19341577 235.82561508 200.62632674 237.6264877 211.46435547 240.01904297 C214.01964359 240.59355265 216.55928881 241.20334046 219.09765625 241.84765625 C227.57658717 243.98897081 235.9990352 245.48174501 244.69433594 246.47338867 C249.51693415 247.07264925 253.8718851 248.10512694 258.47998047 249.66503906 C265.02225344 251.70778768 271.20464134 252.53016749 278.0234375 252.953125 C279.18786377 253.03634003 280.35229004 253.11955505 281.55200195 253.20529175 C285.30456107 253.46675841 289.05813781 253.70346945 292.8125 253.9375 C294.09441223 254.02288025 295.37632446 254.1082605 296.69708252 254.19622803 C314.62908831 255.38863833 332.4877755 256.11274561 350.45849609 255.71582031 C361.21002891 255.4945576 371.29648367 256.07176339 381.375 260.0625 C382.93541016 260.66191406 382.93541016 260.66191406 384.52734375 261.2734375 C387.58493238 262.75913828 389.94350534 264.38181801 392.4375 266.6875 C392.4375 267.3475 392.4375 268.0075 392.4375 268.6875 C392.94925781 268.935 393.46101563 269.1825 393.98828125 269.4375 C395.9455782 270.43643943 397.8746703 271.49057537 399.79296875 272.5625 C408.54835921 277.50610681 408.54835921 277.50610681 418.1796875 280.12109375 C422.34836751 281.16686988 426.00596735 283.45970334 429.73828125 285.54296875 C432.31825937 286.90882999 432.31825937 286.90882999 434.79296875 286.36328125 C435.60701172 286.02876953 435.60701172 286.02876953 436.4375 285.6875 C436.69144531 284.70910156 436.94539063 283.73070312 437.20703125 282.72265625 C438.09450882 279.32463701 439.0075422 275.93408403 439.93359375 272.54638672 C440.34315351 271.03553983 440.73651819 269.52030969 441.125 268.00390625 C442.37659458 263.61550275 444.05148126 260.752889 447 257.25 C450.38611843 253.20782112 451.12476972 250.15318562 451.8671875 245.02734375 C452.68082579 241.6891976 454.37850045 239.89324226 456.734375 237.46875 C458.64318081 235.4723843 460.23251561 233.3445735 461.875 231.125 C467.95621955 223.28342742 475.3677431 217.16627549 485.4375 215.6875 C503.87063971 214.47654645 520.3739238 217.90030759 535 229.875 C540.02597634 234.68604972 542.39343895 240.11798285 544.4375 246.6875 C544.63601563 247.30109375 544.83453125 247.9146875 545.0390625 248.546875 C547.49905753 261.7633189 545.26434419 275.9308213 537.734375 287.1328125 C536.4375 288.6875 536.4375 288.6875 533.75 290.625 C531.09218525 292.99548343 531.02674506 293.80071766 530.4375 297.1875 C529.85077394 300.41713623 529.62449566 301.4778382 527.375 304 C521.81412044 307.19454783 516.77633802 309.59055374 510.375 310.4375 C504.26642583 311.51883145 501.21626227 314.99317859 497.4375 319.6875 C496.87289062 320.33203125 496.30828125 320.9765625 495.7265625 321.640625 C494.16700694 323.67052271 493.1643286 325.22884522 492.4375 327.6875 C492.95213881 331.21332333 494.18908763 334.36402383 495.4375 337.6875 C496.0785111 341.17744933 495.97520117 342.82873669 494.08984375 345.83984375 C493.01409871 347.36826637 491.90190357 348.87187322 490.75 350.34375 C489.00945454 353.45186689 488.97955681 355.15356103 489.4375 358.6875 C490.55556372 361.34928622 491.70196865 363.78435759 493.0625 366.3125 C493.80784137 367.73799396 494.55262899 369.1637776 495.296875 370.58984375 C495.66490234 371.28706543 496.03292969 371.98428711 496.41210938 372.70263672 C497.79883569 375.38694265 499.04235876 378.1339768 500.3125 380.875 C503.23071671 386.75966841 507.06016731 391.69375818 511.16796875 396.77734375 C515.32057287 402.10211151 516.97976732 406.08161793 517.625 412.8125 C517.70105469 413.57022705 517.77710938 414.3279541 517.85546875 415.10864258 C517.99945336 416.61839187 518.13557228 418.12891541 518.26318359 419.64013672 C518.40849958 421.34688724 518.58513308 423.05093491 518.76953125 424.75390625 C519.35096025 433.82690293 515.43234989 442.50103731 510.21875 449.7890625 C508.23406715 453.01852451 508.07783606 454.0976614 508.6875 457.75 C510.04780836 468.1135864 511.70092003 482.76232314 505.9921875 492.03515625 C504.23752127 494.07702121 502.4175627 495.86252418 500.4375 497.6875 C499.71977417 498.46963867 499.71977417 498.46963867 498.98754883 499.26757812 C494.38175717 504.20452277 489.44711523 507.30556085 483.5 510.4375 C482.64470703 510.90542969 481.78941406 511.37335937 480.90820312 511.85546875 C470.34444237 517.54426745 460.70072202 520.91218154 448.55859375 517.99609375 C437.39741836 513.92354273 431.50590159 505.44121843 425.4375 495.6875 C424.51561539 492.92184618 424.31964778 491.30466298 424.33984375 488.45703125 C424.34306641 487.65458984 424.34628906 486.85214844 424.34960938 486.02539062 C424.35798828 485.19201172 424.36636719 484.35863281 424.375 483.5 C424.37951172 482.65501953 424.38402344 481.81003906 424.38867188 480.93945312 C424.40044597 478.85543845 424.4183811 476.77146023 424.4375 474.6875 C417.86182043 475.63399933 411.52763969 476.90566465 405.125 478.6875 C397.7495663 480.66818184 390.44016682 481.4081763 382.82495117 481.828125 C378.0140388 482.13751408 373.34129553 482.67348518 368.61499023 483.62304688 C353.82331818 486.57156403 339.54179982 487.30926705 324.47143555 487.20898438 C320.58385683 487.18727019 316.69807485 487.20905384 312.81054688 487.234375 C310.30468348 487.23173568 307.79882118 487.22661894 305.29296875 487.21875 C303.57559761 487.23089539 303.57559761 487.23089539 301.8235321 487.24328613 C293.46889475 487.14630627 285.37726342 485.98430621 279.25 479.8125 C275.08092336 474.37717086 272.33164695 467.86110933 269.4375 461.6875 C267.07657851 464.04842149 267.11800766 464.65000484 267.0625 467.875 C267.16726611 471.76367135 267.92699509 474.31858031 270.11328125 477.6171875 C271.84941666 480.3314995 273.23077771 483.18905694 274.6875 486.0625 C277.49040699 491.32399136 280.64571692 495.44472388 284.703125 499.77734375 C288.82982876 504.32229451 290.01674188 508.51453646 289.78515625 514.515625 C288.97325501 519.58772715 285.41437704 523.25603622 281.5546875 526.42578125 C279.17551243 527.84362912 276.71499647 528.72631311 274.11523438 529.66064453 C268.41842605 531.6341099 268.41842605 531.6341099 264.0859375 535.58984375 C263.42900971 538.37933564 263.39352641 540.8123039 263.4375 543.6875 C263.42547662 545.31512278 263.41092463 546.94272787 263.39453125 548.5703125 C263.36571047 552.82566217 263.41639414 557.07496162 263.51928711 561.32910156 C263.4375 563.6875 263.4375 563.6875 262.94921875 566.59619141 C261.31510844 576.4679017 262.76680096 585.89586638 264.875 595.5625 C267.64902687 609.30401772 269.54768032 620.8187787 265.92773438 634.54492188 C263.54853213 643.66659834 263.13606789 652.11751034 267.4375 660.6875 C267.84234619 661.33750977 268.24719238 661.98751953 268.66430664 662.65722656 C272.29623064 668.51005278 273.31239856 673.434012 273.6875 680.25 C273.81677443 682.04303633 273.94696921 683.83600656 274.078125 685.62890625 C274.13468262 686.49644531 274.19124023 687.36398437 274.24951172 688.2578125 C274.41036142 690.33674267 274.67530764 692.40716869 274.9609375 694.47265625 C275.59366125 699.22946864 275.62245305 703.99466809 275.72753906 708.78710938 C276.01025171 721.34994969 276.7003449 733.4182289 279.4375 745.6875 C279.62892578 746.55375 279.82035156 747.42 280.01757812 748.3125 C283.04500622 763.96797217 283.04500622 763.96797217 288.52148438 778.8046875 C289.68231109 781.1906938 289.58296923 783.06905388 289.4375 785.6875 C288.7775 785.6875 288.1175 785.6875 287.4375 785.6875 C292.52556628 795.38249153 297.57353231 803.92398445 305.4375 811.6875 C306.59958984 812.95207031 306.59958984 812.95207031 307.78515625 814.2421875 C317.00075724 822.73845586 331.72338097 825.94864541 343.4375 829.6875 C354.43338952 833.25670259 364.72435151 838.14558628 373.78125 845.41796875 C375.57645785 846.86979711 375.57645785 846.86979711 378.4375 848.25 C380.4375 849.6875 380.4375 849.6875 380.875 852.25 C380.4375 854.6875 380.4375 854.6875 378.4375 856.6875 C376.40625 857.171875 376.40625 857.171875 373.9375 857.4375 C373.1434375 857.53546875 372.349375 857.6334375 371.53125 857.734375 C368.79799767 857.69296209 366.87805254 857.33378847 364.26171875 856.68359375 C356.19383941 854.9625862 347.93871773 855.7042897 339.75 856 C338.09182623 856.04981499 336.43362269 856.09864919 334.77539062 856.14648438 C320.92516147 856.56608956 307.20482271 857.07996464 293.5625 859.6875 C284.60315399 861.35829696 275.82505881 862.81928318 266.6875 862.875 C265.62015625 862.88917969 264.5528125 862.90335938 263.453125 862.91796875 C259.43656031 862.61100331 256.64598376 861.9578777 253.8215332 858.98876953 C252.05291987 856.0480482 252.03913032 854.04941131 251.99609375 850.62890625 C251.95645508 848.84129883 251.95645508 848.84129883 251.91601562 847.01757812 C251.89571289 845.15262695 251.89571289 845.15262695 251.875 843.25 C251.63985686 826.92061541 249.62064224 811.26244085 243.6875 795.9375 C242.4375 792.6875 242.4375 792.6875 242.4375 789.6875 C227.76942259 788.36082899 213.35099294 787.28319113 198.63647461 788.40600586 C190.22326226 788.99896345 190.22326226 788.99896345 186.4375 786.6875 C184.14240169 783.24485253 183.31882481 779.93160755 182.34375 775.9765625 C182.15155884 775.21258148 181.95936768 774.44860046 181.76135254 773.66146851 C181.35509628 772.03984612 180.95181082 770.41747702 180.55126953 768.79443359 C179.94780705 766.3541792 179.3320872 763.91726869 178.71484375 761.48046875 C175.31506765 747.92541818 173.30763548 734.85801068 172.77462769 720.87023926 C172.27822361 708.43423039 171.06654645 696.42273735 168.7923584 684.18765259 C166.07317958 669.52742941 165.00164972 655.40792575 164.9375 640.5 C164.8268576 614.79399228 162.05753933 589.49967904 159.14746094 563.98120117 C158.48867662 558.18079212 157.86135775 552.37793095 157.26953125 546.5703125 C157.18905045 545.80024368 157.10856964 545.03017487 157.02565002 544.23677063 C156.49206352 538.91078479 156.23075083 533.5991203 156.0625 528.25 C155.82889135 521.75545807 155.32389282 515.34043854 154.5234375 508.890625 C152.27004203 490.59110292 150.9936569 472.50724916 150.6875 454.0625 C150.66925171 452.98607239 150.65100342 451.90964478 150.63220215 450.80059814 C150.47473803 440.85123342 150.3709836 430.90639221 150.5625 420.95703125 C151.02735797 406.33384043 151.02735797 406.33384043 146.66796875 392.59765625 C145.17648187 389.07017142 144.752527 385.64704326 144.375 381.875 C143.32032006 372.51711251 139.88558161 367.13542485 134.46484375 359.62890625 C132.97721473 357.47055432 131.59616595 355.33478928 130.25390625 353.08984375 C125.79983711 345.64586522 121.08718771 338.77280639 115.5 332.125 C114.60196655 331.05390991 114.60196655 331.05390991 113.68579102 329.96118164 C112.79525024 328.89951782 112.79525024 328.89951782 111.88671875 327.81640625 C101.65457691 315.61187142 94.12388509 302.97923908 86.97998047 288.73974609 C84.3977794 283.63011048 81.72479066 278.56822488 79.0625 273.5 C75.99125498 267.64363867 72.975937 261.77904985 70.125 255.8125 C64.70284675 245.09142425 56.95754107 238.50429441 47.69140625 231.1171875 C40.86760843 225.64473714 34.72147498 220.2649915 29.375 213.3125 C28.86187256 212.65910645 28.34874512 212.00571289 27.82006836 211.33251953 C25.62509634 208.5322411 23.45650989 205.71224742 21.2890625 202.890625 C18.2052282 198.87760045 15.12361865 195.17961241 11.4375 191.6875 C9.7333946 190.05913262 8.05724559 188.39980248 6.4375 186.6875 C6.4375 186.0275 6.4375 185.3675 6.4375 184.6875 C5.84493408 184.41655518 5.25236816 184.14561035 4.6418457 183.86645508 C1.08765875 181.96556142 -1.51793818 179.18221123 -4.375 176.375 C-4.98537109 175.80587891 -5.59574219 175.23675781 -6.22460938 174.65039062 C-10.46264987 170.48879731 -10.46264987 170.48879731 -10.875 167.1796875 C-8.87661042 163.38512634 -5.94873296 160.93004275 -2.75 158.125 C-1.37975497 156.88866155 -0.01129116 155.65034638 1.35546875 154.41015625 C2.0417334 153.79027832 2.72799805 153.17040039 3.43505859 152.53173828 C7.3803439 148.89815071 11.10215592 145.0443644 14.8515625 141.2109375 C17.4375 138.6875 17.4375 138.6875 20.04296875 136.60546875 C22.35051388 134.75717404 24.20421278 132.86519903 26.125 130.625 C26.70636719 129.95339844 27.28773438 129.28179687 27.88671875 128.58984375 C29.59028989 126.56208561 29.59028989 126.56208561 31.4375 123.6875 C30.58250698 120.6604475 29.6106863 117.90614614 28.4375 115 C28.0880835 114.10821045 27.73866699 113.2164209 27.37866211 112.29760742 C21.5508079 97.66256595 15.48459042 82.78168083 8.4375 68.6875 C6.51703832 68.14615069 6.51703832 68.14615069 4.25 67.8125 C0.95264497 67.16129822 -0.56654085 66.68462651 -3.375 64.6875 C-6.78451631 62.54819565 -8.6934332 62.28237018 -12.625 61.8125 C-19.18744885 60.85988646 -19.18744885 60.85988646 -21.75 58.125 C-25.06137235 51.84481106 -24.9034802 46.78796093 -23.4375 39.9375 C-22.57841838 35.8356899 -22.57841838 35.8356899 -23.5625 31.8125 C-26.0550742 29.16413992 -28.72764398 26.96771028 -31.5625 24.6875 C-33.62943059 20.55363881 -33.12236498 15.02835279 -32.06640625 10.61328125 C-30.44801303 6.39814411 -28.24711908 4.17247566 -24.5625 1.6875 C-23.53125 0.965625 -22.5 0.24375 -21.4375 -0.5 C-14.40359974 -4.93441538 -7.23525902 -3.45989883 0 0 Z M247.4375 313.6875 C248.91933348 317.48365769 250.94133799 318.98674142 254.3125 321.1875 C257.00276123 322.95423872 259.24947664 324.4797825 261.4140625 326.87109375 C264.66565967 329.78999855 267.67277111 329.30403381 271.86328125 329.125 C274.62886083 328.84947992 274.62886083 328.84947992 277.125 326.75 C278.86222101 322.69648432 279.13879078 319.0420265 278.4375 314.6875 C277.7775 313.6975 277.1175 312.7075 276.4375 311.6875 C266.80495394 310.92301222 257.00631492 312.58718453 247.4375 313.6875 Z " fill="#030303" transform="translate(147.5625,82.3125)"/>
<path d="M0 0 C0 3.26877973 -0.36233869 3.93915829 -2.1875 6.5 C-2.59355469 7.0878125 -2.99960938 7.675625 -3.41796875 8.28125 C-5 10 -5 10 -7.18359375 11.23828125 C-11.31167556 13.82047944 -14.47443578 17.22655193 -17.875 20.6875 C-18.89787109 21.71133789 -18.89787109 21.71133789 -19.94140625 22.75585938 C-28.03511419 30.90494863 -28.03511419 30.90494863 -35 40 C-35.94921875 37.94140625 -35.94921875 37.94140625 -36 35 C-33.95144509 32.27976095 -31.38033484 30.15796726 -28.8125 27.9375 C-27.33168077 26.60861004 -25.85253105 25.27785748 -24.375 23.9453125 C-23.63507813 23.2843457 -22.89515625 22.62337891 -22.1328125 21.94238281 C-19.08650888 19.16807058 -16.19208751 16.25809258 -13.3125 13.3125 C-10.01981839 9.94530225 -6.68779864 6.92371707 -3 4 C-1.23676495 1.87396815 -1.23676495 1.87396815 0 0 Z " fill="#8B8B8B" transform="translate(173,213)"/>
<path d="M0 0 C0 0.66 0 1.32 0 2 C-0.99 2 -1.98 2 -3 2 C-3.25007812 2.57492187 -3.50015625 3.14984375 -3.7578125 3.7421875 C-5.17069746 6.31026142 -6.79676187 8.06244669 -8.875 10.125 C-9.55304687 10.80820312 -10.23109375 11.49140625 -10.9296875 12.1953125 C-12.88735669 13.90180904 -14.6307409 14.96942541 -17 16 C-14.2841051 10.03568178 -7.33286569 0 0 0 Z " fill="#5A5A5A" transform="translate(624,302)"/>
<path d="M0 0 C0.33 0 0.66 0 1 0 C1.02578125 0.80824219 1.0515625 1.61648437 1.078125 2.44921875 C1.36257784 9.12233923 1.36257784 9.12233923 3.875 15.1875 C7.23939541 18.05713138 10.41494827 18.2106428 14.6875 18.5625 C15.68136719 18.64628906 16.67523438 18.73007813 17.69921875 18.81640625 C18.83810547 18.90728516 18.83810547 18.90728516 20 19 C20.33 20.32 20.66 21.64 21 23 C20.46246094 22.68546875 19.92492187 22.3709375 19.37109375 22.046875 C16.56333351 20.80720491 14.10975041 20.57278567 11.0625 20.25 C4.38412611 19.18308905 4.38412611 19.18308905 1.8125 16.4375 C-1.03959492 11.02835447 -1.73435347 5.89680181 0 0 Z " fill="#868686" transform="translate(124,124)"/>
<path d="M0 0 C6.86036401 0.65965039 13.34443923 2.2362764 20 4 C20 4.33 20 4.66 20 5 C13.541733 5.35879261 8.02284268 4.44048272 2 2 C1.34 1.34 0.68 0.68 0 0 Z " fill="#767676" transform="translate(337,318)"/>
<path d="M0 0 C0.598125 0.226875 1.19625 0.45375 1.8125 0.6875 C1.19375 1.285625 0.575 1.88375 -0.0625 2.5 C-2.32426954 4.69561144 -2.32426954 4.69561144 -4.1875 7.6875 C-4.875 5.375 -4.875 5.375 -5.1875 2.6875 C-3.60587179 0.1901923 -2.97595617 -0.4251366 0 0 Z " fill="#606060" transform="translate(142.1875,245.3125)"/>
<path d="M0 0 C2.79872437 2.52788007 4.45773019 4.20411134 5 8 C2 7 2 7 0 4 C0 2.68 0 1.36 0 0 Z " fill="#777777" transform="translate(271,233)"/>
</svg>